<svg width="24" height="40" viewBox="0 0 24 40" fill="none" xmlns="http://www.w3.org/2000/svg">
<path d="M22.8616 18.4392L5.0611 0.639019C4.64939 0.22699 4.0998 0 3.51379 0C2.92778 0 2.37819 0.22699 1.96649 0.639019L0.655605 1.94958C-0.197396 2.80355 -0.197396 4.19151 0.655605 5.04419L15.6031 19.9917L0.639019 34.9558C0.227315 35.3678 0 35.9171 0 36.5028C0 37.0891 0.227315 37.6384 0.639019 38.0507L1.9499 39.361C2.36193 39.773 2.9112 40 3.49721 40C4.08322 40 4.63281 39.773 5.04451 39.361L22.8616 21.5445C23.2743 21.1312 23.5009 20.5793 23.4996 19.9927C23.5009 19.4037 23.2743 18.8522 22.8616 18.4392Z" fill="black"/>
</svg>
