<svg width="40" height="40" viewBox="0 0 40 40" fill="none" xmlns="http://www.w3.org/2000/svg">
<path d="M23.6646 19.9999L39.2398 4.42421C40.2535 3.41108 40.2535 1.77298 39.2398 0.75985C38.2267 -0.253283 36.5886 -0.253283 35.5755 0.75985L19.9998 16.3355L4.42457 0.75985C3.41096 -0.253283 1.77334 -0.253283 0.760207 0.75985C-0.253402 1.77298 -0.253402 3.41108 0.760207 4.42421L16.3354 19.9999L0.760207 35.5756C-0.253402 36.5887 -0.253402 38.2268 0.760207 39.2399C1.26511 39.7453 1.92899 39.9992 2.59239 39.9992C3.25579 39.9992 3.91919 39.7453 4.42457 39.2399L19.9998 23.6643L35.5755 39.2399C36.0809 39.7453 36.7443 39.9992 37.4077 39.9992C38.0711 39.9992 38.7345 39.7453 39.2398 39.2399C40.2535 38.2268 40.2535 36.5887 39.2398 35.5756L23.6646 19.9999Z" fill="black"/>
</svg>
