<svg width="40" height="40" viewBox="0 0 40 40" fill="none" xmlns="http://www.w3.org/2000/svg">
<path d="M37.5602 29.4425L31.9661 25.2365C33.3647 22.833 33.964 20.0289 33.964 17.0246C33.964 7.61099 26.3721 0 16.982 0C7.59196 0 0 7.61099 0 17.0245C0 26.438 7.59196 34.0491 16.982 34.0491C19.9788 34.0491 22.5761 33.2479 25.1733 32.0462L29.3689 37.6543C31.5666 40.4584 35.7621 40.8589 38.3594 38.2552C40.7568 35.8517 40.557 31.6456 37.5602 29.4425ZM16.982 30.0434C9.78963 30.0434 3.99577 24.235 3.99577 17.0246C3.99577 9.81417 9.78963 4.00579 16.982 4.00579C24.1744 4.00579 29.9682 9.81418 29.9682 17.0245C29.9682 24.2348 24.1744 30.0434 16.982 30.0434Z" fill="black"/>
</svg>
